# xmcd
#
# Track frame offsets: 
#        150
#        34246
#        50906
#        68333
#        82175
#
# Disc length: 1540 seconds
#
# Revision: 0
# Processed by: cddbd v1.5.2PL0 Copyright (c) Steve Scherf et al.
# Submitted via: ExactAudioCopyFreeDBPlugin 1.0
#
DISCID=40060205
DTITLE=Blake Mills - Look
DYEAR=2018
DGENRE=No, thanks.
TTITLE0=I
TTITLE1=II
TTITLE2=III
TTITLE3=IV
TTITLE4=V
EXTD=
EXTT0=
EXTT1=
EXTT2=
EXTT3=
EXTT4=
PLAYORDER=
